<svg xmlns="http://www.w3.org/2000/svg" xmlns:xlink="http://www.w3.org/1999/xlink" width="200" zoomAndPan="magnify" viewBox="0 0 375 374.999991" height="200" preserveAspectRatio="xMidYMid meet" version="1.0"><defs><g/><clipPath id="a77b2bb8f9"><path d="M 77.023438 16.582031 L 298 16.582031 L 298 274.582031 L 77.023438 274.582031 Z M 77.023438 16.582031 " clip-rule="nonzero"/></clipPath><clipPath id="ada49482b6"><path d="M 196.703125 85.742188 L 178.292969 85.742188 L 178.292969 67.332031 L 196.703125 67.332031 Z M 187.496094 104.15625 C 190.800781 104.15625 193.667969 101.917969 194.472656 98.710938 L 195.410156 94.949219 L 179.582031 94.949219 L 180.523438 98.710938 C 181.324219 101.917969 184.191406 104.15625 187.496094 104.15625 Z M 169.085938 67.332031 L 158.59375 67.332031 L 152.457031 85.742188 L 169.085938 85.742188 Z M 159.878906 104.15625 C 163.183594 104.15625 166.050781 101.917969 166.851562 98.710938 L 167.792969 94.949219 L 151.964844 94.949219 L 152.90625 98.710938 C 153.707031 101.917969 156.574219 104.15625 159.878906 104.15625 Z M 216.402344 67.332031 L 205.910156 67.332031 L 205.910156 85.742188 L 222.539062 85.742188 Z M 239.890625 85.742188 L 230.683594 67.332031 L 226.105469 67.332031 L 232.242188 85.742188 Z M 208.140625 98.710938 C 208.945312 101.917969 211.8125 104.15625 215.117188 104.15625 C 218.421875 104.15625 221.289062 101.917969 222.089844 98.710938 L 223.03125 94.949219 L 207.203125 94.949219 Z M 236.523438 101.769531 C 236.875 103.171875 238.132812 104.15625 239.582031 104.15625 C 241.320312 104.15625 242.734375 102.742188 242.734375 101.003906 L 242.734375 94.949219 L 234.820312 94.949219 Z M 148.890625 67.332031 L 144.3125 67.332031 L 135.105469 85.742188 L 142.753906 85.742188 Z M 267.964844 244.292969 C 253.636719 241.429688 236.109375 239.429688 216.980469 238.417969 C 202.265625 256.203125 191.019531 268.234375 190.855469 268.410156 C 189.984375 269.335938 188.769531 269.863281 187.496094 269.863281 C 186.226562 269.863281 185.007812 269.335938 184.140625 268.410156 C 182.835938 267.019531 171.980469 255.371094 157.941406 238.414062 C 138.839844 239.433594 121.34375 241.433594 107.03125 244.292969 C 78.789062 249.941406 77.023438 255.996094 77.023438 256.054688 C 77.023438 256.113281 78.789062 262.167969 107.027344 267.816406 C 128.476562 272.105469 157.054688 274.46875 187.496094 274.46875 C 217.941406 274.46875 246.519531 272.105469 267.964844 267.816406 C 296.207031 262.167969 297.96875 256.113281 297.96875 256.054688 C 297.96875 255.996094 296.207031 249.941406 267.964844 244.292969 Z M 132.261719 101.003906 C 132.261719 102.742188 133.675781 104.15625 135.414062 104.15625 C 136.863281 104.15625 138.117188 103.171875 138.46875 101.769531 L 140.175781 94.949219 L 132.261719 94.949219 Z M 187.496094 182.40625 C 146.886719 182.40625 113.847656 149.367188 113.847656 108.757812 C 113.847656 68.148438 146.886719 35.109375 187.496094 35.109375 C 228.109375 35.109375 261.144531 68.148438 261.144531 108.757812 C 261.144531 149.367188 228.109375 182.40625 187.496094 182.40625 Z M 142.617188 159.390625 L 232.375 159.390625 C 238.085938 159.390625 242.734375 154.746094 242.734375 149.035156 L 242.734375 112.9375 C 248.023438 111.539062 251.941406 106.726562 251.941406 101.003906 L 251.941406 90.347656 C 251.941406 89.632812 251.773438 88.925781 251.453125 88.289062 L 237.644531 60.667969 C 236.863281 59.109375 235.269531 58.125 233.527344 58.125 L 141.46875 58.125 C 139.722656 58.125 138.128906 59.109375 137.351562 60.667969 L 123.542969 88.289062 C 123.222656 88.925781 123.054688 89.632812 123.054688 90.347656 L 123.054688 101.003906 C 123.054688 106.726562 126.972656 111.539062 132.261719 112.9375 L 132.261719 149.035156 C 132.261719 154.746094 136.90625 159.390625 142.617188 159.390625 Z M 142.859375 204.28125 C 111.835938 162.621094 95.4375 129.589844 95.4375 108.757812 C 95.4375 57.996094 136.734375 16.699219 187.496094 16.699219 C 238.257812 16.699219 279.558594 57.996094 279.558594 108.757812 C 279.558594 154.203125 204.429688 239.746094 187.496094 258.449219 C 180.050781 250.238281 161.367188 229.136719 142.859375 204.28125 Z M 187.496094 191.613281 C 233.183594 191.613281 270.351562 154.445312 270.351562 108.757812 C 270.351562 63.070312 233.183594 25.902344 187.496094 25.902344 C 141.8125 25.902344 104.644531 63.070312 104.644531 108.757812 C 104.644531 154.445312 141.8125 191.613281 187.496094 191.613281 Z M 178.292969 150.183594 L 178.292969 127.171875 C 178.292969 124.628906 176.230469 122.566406 173.6875 122.566406 L 150.671875 122.566406 C 148.132812 122.566406 146.070312 124.628906 146.070312 127.171875 L 146.070312 150.183594 L 142.617188 150.183594 C 141.984375 150.183594 141.46875 149.667969 141.46875 149.035156 L 141.46875 111.773438 C 143.621094 110.5625 145.394531 108.726562 146.503906 106.457031 C 149.507812 110.695312 154.433594 113.359375 159.878906 113.359375 C 165.597656 113.359375 170.738281 110.421875 173.6875 105.8125 C 176.636719 110.421875 181.78125 113.359375 187.496094 113.359375 C 193.214844 113.359375 198.359375 110.421875 201.304688 105.8125 C 204.253906 110.421875 209.398438 113.359375 215.117188 113.359375 C 220.5625 113.359375 225.488281 110.695312 228.492188 106.457031 C 229.601562 108.722656 231.375 110.5625 233.527344 111.773438 L 233.527344 149.035156 C 233.527344 149.667969 233.011719 150.183594 232.375 150.183594 Z M 187.496094 136.375 C 187.496094 138.917969 189.558594 140.980469 192.101562 140.980469 L 224.320312 140.980469 C 226.863281 140.980469 228.925781 138.917969 228.925781 136.375 L 228.925781 122.566406 C 228.925781 120.023438 226.863281 117.964844 224.320312 117.964844 L 192.101562 117.964844 C 189.558594 117.964844 187.496094 120.023438 187.496094 122.566406 Z M 219.71875 127.171875 L 196.703125 127.171875 L 196.703125 131.773438 L 219.71875 131.773438 Z M 155.277344 150.183594 L 169.085938 150.183594 L 169.085938 131.773438 L 155.277344 131.773438 Z M 155.277344 150.183594 " clip-rule="nonzero"/></clipPath><linearGradient x1="71.614989" gradientTransform="matrix(0.575378, 0, 0, 0.575378, 40.200554, -1.71448)" y1="487.615003" x2="487.614996" gradientUnits="userSpaceOnUse" y2="71.615024" id="40421051fa"><stop stop-opacity="1" stop-color="rgb(65.899658%, 88.198853%, 25.498962%)" offset="0"/><stop stop-opacity="1" stop-color="rgb(65.899658%, 88.198853%, 25.498962%)" offset="0.03125"/><stop stop-opacity="1" stop-color="rgb(65.835571%, 88.12561%, 25.596619%)" offset="0.0390625"/><stop stop-opacity="1" stop-color="rgb(65.406799%, 87.626648%, 26.261902%)" offset="0.0429688"/><stop stop-opacity="1" stop-color="rgb(65.042114%, 87.202454%, 26.829529%)" offset="0.046875"/><stop stop-opacity="1" stop-color="rgb(64.677429%, 86.776733%, 27.39563%)" offset="0.0507812"/><stop stop-opacity="1" stop-color="rgb(64.312744%, 86.352539%, 27.961731%)" offset="0.0546875"/><stop stop-opacity="1" stop-color="rgb(63.946533%, 85.928345%, 28.527832%)" offset="0.0585938"/><stop stop-opacity="1" stop-color="rgb(63.581848%, 85.50415%, 29.095459%)" offset="0.0625"/><stop stop-opacity="1" stop-color="rgb(63.217163%, 85.07843%, 29.66156%)" offset="0.0664062"/><stop stop-opacity="1" stop-color="rgb(62.852478%, 84.654236%, 30.227661%)" offset="0.0703125"/><stop stop-opacity="1" stop-color="rgb(62.486267%, 84.228516%, 30.793762%)" offset="0.0742188"/><stop stop-opacity="1" stop-color="rgb(62.121582%, 83.804321%, 31.361389%)" offset="0.078125"/><stop stop-opacity="1" stop-color="rgb(61.756897%, 83.380127%, 31.92749%)" offset="0.0820312"/><stop stop-opacity="1" stop-color="rgb(61.392212%, 82.955933%, 32.495117%)" offset="0.0859375"/><stop stop-opacity="1" stop-color="rgb(61.026001%, 82.530212%, 33.061218%)" offset="0.0898438"/><stop stop-opacity="1" stop-color="rgb(60.661316%, 82.106018%, 33.627319%)" offset="0.09375"/><stop stop-opacity="1" stop-color="rgb(60.296631%, 81.680298%, 34.19342%)" offset="0.0976563"/><stop stop-opacity="1" stop-color="rgb(59.931946%, 81.256104%, 34.761047%)" offset="0.101563"/><stop stop-opacity="1" stop-color="rgb(59.565735%, 80.831909%, 35.327148%)" offset="0.105469"/><stop stop-opacity="1" stop-color="rgb(59.20105%, 80.407715%, 35.894775%)" offset="0.109375"/><stop stop-opacity="1" stop-color="rgb(58.836365%, 79.981995%, 36.460876%)" offset="0.113281"/><stop stop-opacity="1" stop-color="rgb(58.47168%, 79.5578%, 37.026978%)" offset="0.117187"/><stop stop-opacity="1" stop-color="rgb(58.105469%, 79.13208%, 37.593079%)" offset="0.121094"/><stop stop-opacity="1" stop-color="rgb(57.740784%, 78.707886%, 38.160706%)" offset="0.125"/><stop stop-opacity="1" stop-color="rgb(57.376099%, 78.283691%, 38.726807%)" offset="0.128906"/><stop stop-opacity="1" stop-color="rgb(57.011414%, 77.859497%, 39.292908%)" offset="0.132812"/><stop stop-opacity="1" stop-color="rgb(56.645203%, 77.433777%, 39.859009%)" offset="0.136719"/><stop stop-opacity="1" stop-color="rgb(56.280518%, 77.009583%, 40.426636%)" offset="0.140625"/><stop stop-opacity="1" stop-color="rgb(55.915833%, 76.583862%, 40.992737%)" offset="0.144531"/><stop stop-opacity="1" stop-color="rgb(55.551147%, 76.159668%, 41.560364%)" offset="0.148438"/><stop stop-opacity="1" stop-color="rgb(55.184937%, 75.735474%, 42.126465%)" offset="0.152344"/><stop stop-opacity="1" stop-color="rgb(54.820251%, 75.311279%, 42.692566%)" offset="0.15625"/><stop stop-opacity="1" stop-color="rgb(54.455566%, 74.885559%, 43.258667%)" offset="0.160156"/><stop stop-opacity="1" stop-color="rgb(54.090881%, 74.461365%, 43.826294%)" offset="0.164063"/><stop stop-opacity="1" stop-color="rgb(53.72467%, 74.035645%, 44.392395%)" offset="0.167969"/><stop stop-opacity="1" stop-color="rgb(53.359985%, 73.61145%, 44.958496%)" offset="0.171875"/><stop stop-opacity="1" stop-color="rgb(52.9953%, 73.187256%, 45.524597%)" offset="0.175781"/><stop stop-opacity="1" stop-color="rgb(52.630615%, 72.763062%, 46.092224%)" offset="0.179688"/><stop stop-opacity="1" stop-color="rgb(52.264404%, 72.337341%, 46.658325%)" offset="0.183594"/><stop stop-opacity="1" stop-color="rgb(51.899719%, 71.913147%, 47.225952%)" offset="0.1875"/><stop stop-opacity="1" stop-color="rgb(51.535034%, 71.487427%, 47.792053%)" offset="0.191406"/><stop stop-opacity="1" stop-color="rgb(51.170349%, 71.063232%, 48.358154%)" offset="0.195313"/><stop stop-opacity="1" stop-color="rgb(50.804138%, 70.639038%, 48.924255%)" offset="0.199219"/><stop stop-opacity="1" stop-color="rgb(50.439453%, 70.214844%, 49.491882%)" offset="0.203125"/><stop stop-opacity="1" stop-color="rgb(50.074768%, 69.789124%, 50.057983%)" offset="0.207031"/><stop stop-opacity="1" stop-color="rgb(49.710083%, 69.364929%, 50.624084%)" offset="0.210938"/><stop stop-opacity="1" stop-color="rgb(49.343872%, 68.939209%, 51.190186%)" offset="0.214844"/><stop stop-opacity="1" stop-color="rgb(48.979187%, 68.515015%, 51.757812%)" offset="0.21875"/><stop stop-opacity="1" stop-color="rgb(48.614502%, 68.09082%, 52.323914%)" offset="0.222656"/><stop stop-opacity="1" stop-color="rgb(48.249817%, 67.666626%, 52.891541%)" offset="0.226563"/><stop stop-opacity="1" stop-color="rgb(47.883606%, 67.240906%, 53.457642%)" offset="0.230469"/><stop stop-opacity="1" stop-color="rgb(47.518921%, 66.816711%, 54.023743%)" offset="0.234375"/><stop stop-opacity="1" stop-color="rgb(47.154236%, 66.390991%, 54.589844%)" offset="0.238281"/><stop stop-opacity="1" stop-color="rgb(46.789551%, 65.966797%, 55.157471%)" offset="0.242188"/><stop stop-opacity="1" stop-color="rgb(46.42334%, 65.542603%, 55.723572%)" offset="0.246094"/><stop stop-opacity="1" stop-color="rgb(46.058655%, 65.118408%, 56.291199%)" offset="0.25"/><stop stop-opacity="1" stop-color="rgb(45.69397%, 64.692688%, 56.8573%)" offset="0.253906"/><stop stop-opacity="1" stop-color="rgb(45.329285%, 64.268494%, 57.423401%)" offset="0.257813"/><stop stop-opacity="1" stop-color="rgb(44.963074%, 63.842773%, 57.989502%)" offset="0.261719"/><stop stop-opacity="1" stop-color="rgb(44.598389%, 63.418579%, 58.557129%)" offset="0.265625"/><stop stop-opacity="1" stop-color="rgb(44.233704%, 62.994385%, 59.12323%)" offset="0.269531"/><stop stop-opacity="1" stop-color="rgb(43.869019%, 62.57019%, 59.689331%)" offset="0.273438"/><stop stop-opacity="1" stop-color="rgb(43.502808%, 62.14447%, 60.255432%)" offset="0.277344"/><stop stop-opacity="1" stop-color="rgb(43.138123%, 61.720276%, 60.823059%)" offset="0.28125"/><stop stop-opacity="1" stop-color="rgb(42.773438%, 61.294556%, 61.38916%)" offset="0.285156"/><stop stop-opacity="1" stop-color="rgb(42.408752%, 60.870361%, 61.956787%)" offset="0.289063"/><stop stop-opacity="1" stop-color="rgb(42.042542%, 60.446167%, 62.522888%)" offset="0.292969"/><stop stop-opacity="1" stop-color="rgb(41.677856%, 60.021973%, 63.088989%)" offset="0.296875"/><stop stop-opacity="1" stop-color="rgb(41.313171%, 59.596252%, 63.65509%)" offset="0.300781"/><stop stop-opacity="1" stop-color="rgb(40.948486%, 59.172058%, 64.222717%)" offset="0.304688"/><stop stop-opacity="1" stop-color="rgb(40.582275%, 58.746338%, 64.788818%)" offset="0.308594"/><stop stop-opacity="1" stop-color="rgb(40.21759%, 58.322144%, 65.354919%)" offset="0.3125"/><stop stop-opacity="1" stop-color="rgb(39.852905%, 57.897949%, 65.921021%)" offset="0.316406"/><stop stop-opacity="1" stop-color="rgb(39.48822%, 57.473755%, 66.488647%)" offset="0.320313"/><stop stop-opacity="1" stop-color="rgb(39.122009%, 57.048035%, 67.054749%)" offset="0.324219"/><stop stop-opacity="1" stop-color="rgb(38.757324%, 56.62384%, 67.622375%)" offset="0.328125"/><stop stop-opacity="1" stop-color="rgb(38.392639%, 56.199646%, 68.188477%)" offset="0.332031"/><stop stop-opacity="1" stop-color="rgb(38.027954%, 55.775452%, 68.754578%)" offset="0.335938"/><stop stop-opacity="1" stop-color="rgb(37.661743%, 55.349731%, 69.320679%)" offset="0.339844"/><stop stop-opacity="1" stop-color="rgb(37.297058%, 54.925537%, 69.888306%)" offset="0.34375"/><stop stop-opacity="1" stop-color="rgb(36.932373%, 54.499817%, 70.454407%)" offset="0.347656"/><stop stop-opacity="1" stop-color="rgb(36.567688%, 54.075623%, 71.020508%)" offset="0.351562"/><stop stop-opacity="1" stop-color="rgb(36.203003%, 53.651428%, 71.586609%)" offset="0.355469"/><stop stop-opacity="1" stop-color="rgb(35.838318%, 53.227234%, 72.154236%)" offset="0.359375"/><stop stop-opacity="1" stop-color="rgb(35.472107%, 52.801514%, 72.720337%)" offset="0.363281"/><stop stop-opacity="1" stop-color="rgb(35.107422%, 52.377319%, 73.287964%)" offset="0.367188"/><stop stop-opacity="1" stop-color="rgb(34.742737%, 51.951599%, 73.854065%)" offset="0.371094"/><stop stop-opacity="1" stop-color="rgb(34.378052%, 51.527405%, 74.420166%)" offset="0.375"/><stop stop-opacity="1" stop-color="rgb(34.011841%, 51.10321%, 74.986267%)" offset="0.378906"/><stop stop-opacity="1" stop-color="rgb(33.647156%, 50.679016%, 75.553894%)" offset="0.382813"/><stop stop-opacity="1" stop-color="rgb(33.282471%, 50.253296%, 76.119995%)" offset="0.386719"/><stop stop-opacity="1" stop-color="rgb(32.917786%, 49.829102%, 76.687622%)" offset="0.390625"/><stop stop-opacity="1" stop-color="rgb(32.551575%, 49.403381%, 77.253723%)" offset="0.394531"/><stop stop-opacity="1" stop-color="rgb(32.18689%, 48.979187%, 77.819824%)" offset="0.398438"/><stop stop-opacity="1" stop-color="rgb(31.822205%, 48.554993%, 78.385925%)" offset="0.402344"/><stop stop-opacity="1" stop-color="rgb(31.45752%, 48.130798%, 78.953552%)" offset="0.40625"/><stop stop-opacity="1" stop-color="rgb(31.091309%, 47.705078%, 79.519653%)" offset="0.410156"/><stop stop-opacity="1" stop-color="rgb(30.726624%, 47.280884%, 80.085754%)" offset="0.414063"/><stop stop-opacity="1" stop-color="rgb(30.361938%, 46.855164%, 80.651855%)" offset="0.417969"/><stop stop-opacity="1" stop-color="rgb(29.997253%, 46.430969%, 81.219482%)" offset="0.421875"/><stop stop-opacity="1" stop-color="rgb(29.631042%, 46.006775%, 81.785583%)" offset="0.425781"/><stop stop-opacity="1" stop-color="rgb(29.266357%, 45.582581%, 82.35321%)" offset="0.429688"/><stop stop-opacity="1" stop-color="rgb(28.901672%, 45.15686%, 82.919312%)" offset="0.433594"/><stop stop-opacity="1" stop-color="rgb(28.536987%, 44.732666%, 83.485413%)" offset="0.4375"/><stop stop-opacity="1" stop-color="rgb(28.170776%, 44.306946%, 84.051514%)" offset="0.441406"/><stop stop-opacity="1" stop-color="rgb(27.806091%, 43.882751%, 84.619141%)" offset="0.445312"/><stop stop-opacity="1" stop-color="rgb(27.441406%, 43.458557%, 85.185242%)" offset="0.449219"/><stop stop-opacity="1" stop-color="rgb(27.076721%, 43.034363%, 85.751343%)" offset="0.453125"/><stop stop-opacity="1" stop-color="rgb(26.71051%, 42.608643%, 86.317444%)" offset="0.457031"/><stop stop-opacity="1" stop-color="rgb(26.345825%, 42.184448%, 86.885071%)" offset="0.460938"/><stop stop-opacity="1" stop-color="rgb(25.98114%, 41.758728%, 87.451172%)" offset="0.464844"/><stop stop-opacity="1" stop-color="rgb(25.616455%, 41.334534%, 88.018799%)" offset="0.46875"/><stop stop-opacity="1" stop-color="rgb(25.907898%, 41.673279%, 87.565613%)" offset="0.472656"/><stop stop-opacity="1" stop-color="rgb(26.199341%, 42.01355%, 87.112427%)" offset="0.476562"/><stop stop-opacity="1" stop-color="rgb(26.615906%, 42.498779%, 86.465454%)" offset="0.480469"/><stop stop-opacity="1" stop-color="rgb(27.032471%, 42.984009%, 85.820007%)" offset="0.484375"/><stop stop-opacity="1" stop-color="rgb(27.449036%, 43.467712%, 85.173035%)" offset="0.488281"/><stop stop-opacity="1" stop-color="rgb(27.865601%, 43.952942%, 84.526062%)" offset="0.492187"/><stop stop-opacity="1" stop-color="rgb(28.282166%, 44.436646%, 83.879089%)" offset="0.496094"/><stop stop-opacity="1" stop-color="rgb(28.69873%, 44.921875%, 83.232117%)" offset="0.5"/><stop stop-opacity="1" stop-color="rgb(29.115295%, 45.407104%, 82.585144%)" offset="0.503906"/><stop stop-opacity="1" stop-color="rgb(29.533386%, 45.892334%, 81.939697%)" offset="0.507812"/><stop stop-opacity="1" stop-color="rgb(29.949951%, 46.376038%, 81.292725%)" offset="0.511719"/><stop stop-opacity="1" stop-color="rgb(30.366516%, 46.861267%, 80.645752%)" offset="0.515625"/><stop stop-opacity="1" stop-color="rgb(30.783081%, 47.344971%, 79.998779%)" offset="0.519531"/><stop stop-opacity="1" stop-color="rgb(31.199646%, 47.8302%, 79.353333%)" offset="0.523438"/><stop stop-opacity="1" stop-color="rgb(31.616211%, 48.31543%, 78.70636%)" offset="0.527344"/><stop stop-opacity="1" stop-color="rgb(32.032776%, 48.800659%, 78.059387%)" offset="0.53125"/><stop stop-opacity="1" stop-color="rgb(32.449341%, 49.284363%, 77.412415%)" offset="0.535156"/><stop stop-opacity="1" stop-color="rgb(32.865906%, 49.769592%, 76.766968%)" offset="0.539062"/><stop stop-opacity="1" stop-color="rgb(33.282471%, 50.253296%, 76.119995%)" offset="0.542969"/><stop stop-opacity="1" stop-color="rgb(33.699036%, 50.738525%, 75.473022%)" offset="0.546875"/><stop stop-opacity="1" stop-color="rgb(34.115601%, 51.223755%, 74.82605%)" offset="0.550781"/><stop stop-opacity="1" stop-color="rgb(34.532166%, 51.708984%, 74.179077%)" offset="0.554688"/><stop stop-opacity="1" stop-color="rgb(34.94873%, 52.192688%, 73.532104%)" offset="0.558594"/><stop stop-opacity="1" stop-color="rgb(35.365295%, 52.677917%, 72.886658%)" offset="0.5625"/><stop stop-opacity="1" stop-color="rgb(35.78186%, 53.161621%, 72.239685%)" offset="0.566406"/><stop stop-opacity="1" stop-color="rgb(36.198425%, 53.646851%, 71.592712%)" offset="0.570312"/><stop stop-opacity="1" stop-color="rgb(36.61499%, 54.13208%, 70.94574%)" offset="0.574219"/><stop stop-opacity="1" stop-color="rgb(37.033081%, 54.61731%, 70.300293%)" offset="0.578125"/><stop stop-opacity="1" stop-color="rgb(37.449646%, 55.101013%, 69.65332%)" offset="0.582031"/><stop stop-opacity="1" stop-color="rgb(37.866211%, 55.586243%, 69.006348%)" offset="0.585938"/><stop stop-opacity="1" stop-color="rgb(38.282776%, 56.069946%, 68.359375%)" offset="0.589844"/><stop stop-opacity="1" stop-color="rgb(38.699341%, 56.555176%, 67.713928%)" offset="0.59375"/><stop stop-opacity="1" stop-color="rgb(39.115906%, 57.040405%, 67.066956%)" offset="0.597656"/><stop stop-opacity="1" stop-color="rgb(39.532471%, 57.525635%, 66.419983%)" offset="0.601562"/><stop stop-opacity="1" stop-color="rgb(39.949036%, 58.009338%, 65.77301%)" offset="0.605469"/><stop stop-opacity="1" stop-color="rgb(40.365601%, 58.494568%, 65.127563%)" offset="0.609375"/><stop stop-opacity="1" stop-color="rgb(40.782166%, 58.978271%, 64.480591%)" offset="0.613281"/><stop stop-opacity="1" stop-color="rgb(41.19873%, 59.463501%, 63.833618%)" offset="0.617188"/><stop stop-opacity="1" stop-color="rgb(41.615295%, 59.94873%, 63.186646%)" offset="0.621094"/><stop stop-opacity="1" stop-color="rgb(42.03186%, 60.43396%, 62.539673%)" offset="0.625"/><stop stop-opacity="1" stop-color="rgb(42.448425%, 60.917664%, 61.8927%)" offset="0.628906"/><stop stop-opacity="1" stop-color="rgb(42.86499%, 61.402893%, 61.247253%)" offset="0.632812"/><stop stop-opacity="1" stop-color="rgb(43.281555%, 61.886597%, 60.600281%)" offset="0.636719"/><stop stop-opacity="1" stop-color="rgb(43.699646%, 62.371826%, 59.953308%)" offset="0.640625"/><stop stop-opacity="1" stop-color="rgb(44.116211%, 62.857056%, 59.306335%)" offset="0.644531"/><stop stop-opacity="1" stop-color="rgb(44.532776%, 63.342285%, 58.660889%)" offset="0.648438"/><stop stop-opacity="1" stop-color="rgb(44.949341%, 63.825989%, 58.013916%)" offset="0.652344"/><stop stop-opacity="1" stop-color="rgb(45.365906%, 64.311218%, 57.366943%)" offset="0.65625"/><stop stop-opacity="1" stop-color="rgb(45.782471%, 64.794922%, 56.719971%)" offset="0.660156"/><stop stop-opacity="1" stop-color="rgb(46.199036%, 65.280151%, 56.074524%)" offset="0.664062"/><stop stop-opacity="1" stop-color="rgb(46.615601%, 65.765381%, 55.427551%)" offset="0.667969"/><stop stop-opacity="1" stop-color="rgb(47.032166%, 66.25061%, 54.780579%)" offset="0.671875"/><stop stop-opacity="1" stop-color="rgb(47.44873%, 66.734314%, 54.133606%)" offset="0.675781"/><stop stop-opacity="1" stop-color="rgb(47.865295%, 67.219543%, 53.486633%)" offset="0.679688"/><stop stop-opacity="1" stop-color="rgb(48.28186%, 67.703247%, 52.839661%)" offset="0.683594"/><stop stop-opacity="1" stop-color="rgb(48.698425%, 68.188477%, 52.194214%)" offset="0.6875"/><stop stop-opacity="1" stop-color="rgb(49.11499%, 68.673706%, 51.547241%)" offset="0.691406"/><stop stop-opacity="1" stop-color="rgb(49.531555%, 69.158936%, 50.900269%)" offset="0.695312"/><stop stop-opacity="1" stop-color="rgb(49.94812%, 69.642639%, 50.253296%)" offset="0.699219"/><stop stop-opacity="1" stop-color="rgb(50.364685%, 70.127869%, 49.607849%)" offset="0.703125"/><stop stop-opacity="1" stop-color="rgb(50.78125%, 70.611572%, 48.960876%)" offset="0.707031"/><stop stop-opacity="1" stop-color="rgb(51.199341%, 71.096802%, 48.313904%)" offset="0.710938"/><stop stop-opacity="1" stop-color="rgb(51.615906%, 71.582031%, 47.666931%)" offset="0.714844"/><stop stop-opacity="1" stop-color="rgb(52.032471%, 72.067261%, 47.021484%)" offset="0.71875"/><stop stop-opacity="1" stop-color="rgb(52.449036%, 72.550964%, 46.374512%)" offset="0.722656"/><stop stop-opacity="1" stop-color="rgb(52.865601%, 73.036194%, 45.727539%)" offset="0.726562"/><stop stop-opacity="1" stop-color="rgb(53.282166%, 73.519897%, 45.080566%)" offset="0.730469"/><stop stop-opacity="1" stop-color="rgb(53.69873%, 74.005127%, 44.43512%)" offset="0.734375"/><stop stop-opacity="1" stop-color="rgb(54.115295%, 74.490356%, 43.788147%)" offset="0.738281"/><stop stop-opacity="1" stop-color="rgb(54.53186%, 74.975586%, 43.141174%)" offset="0.742188"/><stop stop-opacity="1" stop-color="rgb(54.948425%, 75.45929%, 42.494202%)" offset="0.746094"/><stop stop-opacity="1" stop-color="rgb(55.36499%, 75.944519%, 41.847229%)" offset="0.75"/><stop stop-opacity="1" stop-color="rgb(55.781555%, 76.428223%, 41.200256%)" offset="0.753906"/><stop stop-opacity="1" stop-color="rgb(56.19812%, 76.913452%, 40.55481%)" offset="0.757812"/><stop stop-opacity="1" stop-color="rgb(56.614685%, 77.398682%, 39.907837%)" offset="0.761719"/><stop stop-opacity="1" stop-color="rgb(57.03125%, 77.883911%, 39.260864%)" offset="0.765625"/><stop stop-opacity="1" stop-color="rgb(57.447815%, 78.367615%, 38.613892%)" offset="0.769531"/><stop stop-opacity="1" stop-color="rgb(57.86438%, 78.852844%, 37.968445%)" offset="0.773438"/><stop stop-opacity="1" stop-color="rgb(58.280945%, 79.336548%, 37.321472%)" offset="0.777344"/><stop stop-opacity="1" stop-color="rgb(58.699036%, 79.821777%, 36.6745%)" offset="0.78125"/><stop stop-opacity="1" stop-color="rgb(59.115601%, 80.307007%, 36.027527%)" offset="0.785156"/><stop stop-opacity="1" stop-color="rgb(59.532166%, 80.792236%, 35.38208%)" offset="0.789062"/><stop stop-opacity="1" stop-color="rgb(59.94873%, 81.27594%, 34.735107%)" offset="0.792969"/><stop stop-opacity="1" stop-color="rgb(60.365295%, 81.761169%, 34.088135%)" offset="0.796875"/><stop stop-opacity="1" stop-color="rgb(60.78186%, 82.244873%, 33.441162%)" offset="0.800781"/><stop stop-opacity="1" stop-color="rgb(61.198425%, 82.730103%, 32.794189%)" offset="0.804688"/><stop stop-opacity="1" stop-color="rgb(61.61499%, 83.215332%, 32.147217%)" offset="0.808594"/><stop stop-opacity="1" stop-color="rgb(62.031555%, 83.700562%, 31.50177%)" offset="0.8125"/><stop stop-opacity="1" stop-color="rgb(62.44812%, 84.184265%, 30.854797%)" offset="0.816406"/><stop stop-opacity="1" stop-color="rgb(62.864685%, 84.669495%, 30.207825%)" offset="0.820313"/><stop stop-opacity="1" stop-color="rgb(63.28125%, 85.153198%, 29.560852%)" offset="0.824219"/><stop stop-opacity="1" stop-color="rgb(63.697815%, 85.638428%, 28.915405%)" offset="0.828125"/><stop stop-opacity="1" stop-color="rgb(64.11438%, 86.123657%, 28.268433%)" offset="0.832031"/><stop stop-opacity="1" stop-color="rgb(64.530945%, 86.608887%, 27.62146%)" offset="0.835938"/><stop stop-opacity="1" stop-color="rgb(64.94751%, 87.09259%, 26.974487%)" offset="0.839844"/><stop stop-opacity="1" stop-color="rgb(65.365601%, 87.57782%, 26.329041%)" offset="0.84375"/><stop stop-opacity="1" stop-color="rgb(65.632629%, 87.887573%, 25.914001%)" offset="0.847656"/><stop stop-opacity="1" stop-color="rgb(65.899658%, 88.198853%, 25.498962%)" offset="0.851563"/><stop stop-opacity="1" stop-color="rgb(65.899658%, 88.198853%, 25.498962%)" offset="0.859375"/><stop stop-opacity="1" stop-color="rgb(65.899658%, 88.198853%, 25.498962%)" offset="0.875"/><stop stop-opacity="1" stop-color="rgb(65.899658%, 88.198853%, 25.498962%)" offset="1"/></linearGradient></defs><rect x="-37.5" width="450" fill="#ffffff" y="-37.499999" height="449.999989" fill-opacity="1"/><rect x="-37.5" width="450" fill="#ffffff" y="-37.499999" height="449.999989" fill-opacity="1"/><g clip-path="url(#a77b2bb8f9)"><g clip-path="url(#ada49482b6)"><path fill="url(#40421051fa)" d="M 77.023438 16.699219 L 77.023438 274.46875 L 297.96875 274.46875 L 297.96875 16.699219 Z M 77.023438 16.699219 " fill-rule="nonzero"/></g></g><g fill="#000000" fill-opacity="1"><g transform="translate(118.972231, 317.708142)"><g><path d="M 19.15625 -9.796875 L 19.15625 -1.984375 C 18.132812 -1.242188 17.039062 -0.6875 15.875 -0.3125 C 14.71875 0.0507812 13.445312 0.234375 12.0625 0.234375 C 10.425781 0.234375 8.945312 -0.0195312 7.625 -0.53125 C 6.300781 -1.039062 5.171875 -1.753906 4.234375 -2.671875 C 3.304688 -3.585938 2.59375 -4.679688 2.09375 -5.953125 C 1.59375 -7.234375 1.34375 -8.644531 1.34375 -10.1875 C 1.34375 -11.738281 1.582031 -13.15625 2.0625 -14.4375 C 2.550781 -15.71875 3.242188 -16.816406 4.140625 -17.734375 C 5.046875 -18.648438 6.144531 -19.359375 7.4375 -19.859375 C 8.726562 -20.359375 10.171875 -20.609375 11.765625 -20.609375 C 12.566406 -20.609375 13.3125 -20.550781 14 -20.4375 C 14.695312 -20.320312 15.335938 -20.148438 15.921875 -19.921875 C 16.515625 -19.703125 17.0625 -19.429688 17.5625 -19.109375 C 18.070312 -18.796875 18.546875 -18.441406 18.984375 -18.046875 L 18.203125 -16.78125 C 18.078125 -16.59375 17.914062 -16.472656 17.71875 -16.421875 C 17.519531 -16.367188 17.304688 -16.414062 17.078125 -16.5625 C 16.847656 -16.695312 16.582031 -16.859375 16.28125 -17.046875 C 15.988281 -17.234375 15.628906 -17.414062 15.203125 -17.59375 C 14.785156 -17.769531 14.289062 -17.914062 13.71875 -18.03125 C 13.144531 -18.15625 12.46875 -18.21875 11.6875 -18.21875 C 10.53125 -18.21875 9.488281 -18.03125 8.5625 -17.65625 C 7.632812 -17.28125 6.84375 -16.742188 6.1875 -16.046875 C 5.53125 -15.359375 5.023438 -14.515625 4.671875 -13.515625 C 4.328125 -12.523438 4.15625 -11.414062 4.15625 -10.1875 C 4.15625 -8.90625 4.335938 -7.757812 4.703125 -6.75 C 5.066406 -5.738281 5.585938 -4.878906 6.265625 -4.171875 C 6.941406 -3.460938 7.765625 -2.921875 8.734375 -2.546875 C 9.703125 -2.179688 10.789062 -2 12 -2 C 12.945312 -2 13.785156 -2.101562 14.515625 -2.3125 C 15.253906 -2.53125 15.972656 -2.832031 16.671875 -3.21875 L 16.671875 -7.703125 L 13.5 -7.703125 C 13.320312 -7.703125 13.175781 -7.753906 13.0625 -7.859375 C 12.957031 -7.960938 12.90625 -8.085938 12.90625 -8.234375 L 12.90625 -9.796875 Z M 19.15625 -9.796875 "/></g></g></g><g fill="#000000" fill-opacity="1"><g transform="translate(140.320515, 317.708142)"><g><path d="M 8.078125 -14.640625 C 9.128906 -14.640625 10.078125 -14.460938 10.921875 -14.109375 C 11.765625 -13.765625 12.484375 -13.269531 13.078125 -12.625 C 13.679688 -11.976562 14.140625 -11.195312 14.453125 -10.28125 C 14.773438 -9.363281 14.9375 -8.34375 14.9375 -7.21875 C 14.9375 -6.070312 14.773438 -5.046875 14.453125 -4.140625 C 14.140625 -3.234375 13.679688 -2.457031 13.078125 -1.8125 C 12.484375 -1.164062 11.765625 -0.664062 10.921875 -0.3125 C 10.078125 0.03125 9.128906 0.203125 8.078125 0.203125 C 7.015625 0.203125 6.054688 0.03125 5.203125 -0.3125 C 4.359375 -0.664062 3.632812 -1.164062 3.03125 -1.8125 C 2.4375 -2.457031 1.976562 -3.234375 1.65625 -4.140625 C 1.34375 -5.046875 1.1875 -6.070312 1.1875 -7.21875 C 1.1875 -8.34375 1.34375 -9.363281 1.65625 -10.28125 C 1.976562 -11.195312 2.4375 -11.976562 3.03125 -12.625 C 3.632812 -13.269531 4.359375 -13.765625 5.203125 -14.109375 C 6.054688 -14.460938 7.015625 -14.640625 8.078125 -14.640625 Z M 8.078125 -1.78125 C 9.503906 -1.78125 10.566406 -2.253906 11.265625 -3.203125 C 11.960938 -4.160156 12.3125 -5.492188 12.3125 -7.203125 C 12.3125 -8.921875 11.960938 -10.253906 11.265625 -11.203125 C 10.566406 -12.160156 9.503906 -12.640625 8.078125 -12.640625 C 7.359375 -12.640625 6.726562 -12.515625 6.1875 -12.265625 C 5.65625 -12.023438 5.210938 -11.671875 4.859375 -11.203125 C 4.503906 -10.742188 4.238281 -10.175781 4.0625 -9.5 C 3.882812 -8.820312 3.796875 -8.054688 3.796875 -7.203125 C 3.796875 -5.492188 4.148438 -4.160156 4.859375 -3.203125 C 5.566406 -2.253906 6.640625 -1.78125 8.078125 -1.78125 Z M 8.078125 -1.78125 "/></g></g></g><g fill="#000000" fill-opacity="1"><g transform="translate(157.017995, 317.708142)"><g><path d="M 5.359375 -18.140625 L 5.359375 -11.015625 L 13.75 -11.015625 L 13.75 -8.765625 L 5.359375 -8.765625 L 5.359375 0 L 2.609375 0 L 2.609375 -20.390625 L 15.171875 -20.390625 L 15.171875 -18.140625 Z M 5.359375 -18.140625 "/></g></g></g><g fill="#000000" fill-opacity="1"><g transform="translate(173.672812, 317.708142)"><g><path d="M 4.6875 -14.40625 L 4.6875 0 L 2.140625 0 L 2.140625 -14.40625 Z M 5.21875 -18.9375 C 5.21875 -18.6875 5.164062 -18.453125 5.0625 -18.234375 C 4.96875 -18.023438 4.835938 -17.835938 4.671875 -17.671875 C 4.503906 -17.503906 4.304688 -17.375 4.078125 -17.28125 C 3.859375 -17.1875 3.628906 -17.140625 3.390625 -17.140625 C 3.140625 -17.140625 2.90625 -17.1875 2.6875 -17.28125 C 2.476562 -17.375 2.289062 -17.503906 2.125 -17.671875 C 1.96875 -17.835938 1.84375 -18.023438 1.75 -18.234375 C 1.65625 -18.453125 1.609375 -18.6875 1.609375 -18.9375 C 1.609375 -19.1875 1.65625 -19.421875 1.75 -19.640625 C 1.84375 -19.859375 1.96875 -20.050781 2.125 -20.21875 C 2.289062 -20.382812 2.476562 -20.515625 2.6875 -20.609375 C 2.90625 -20.703125 3.140625 -20.75 3.390625 -20.75 C 3.628906 -20.75 3.859375 -20.703125 4.078125 -20.609375 C 4.304688 -20.515625 4.503906 -20.382812 4.671875 -20.21875 C 4.835938 -20.050781 4.96875 -19.859375 5.0625 -19.640625 C 5.164062 -19.421875 5.21875 -19.1875 5.21875 -18.9375 Z M 5.21875 -18.9375 "/></g></g></g><g fill="#000000" fill-opacity="1"><g transform="translate(181.068695, 317.708142)"><g><path d="M 4.390625 -12.3125 C 4.703125 -12.664062 5.035156 -12.984375 5.390625 -13.265625 C 5.742188 -13.554688 6.113281 -13.800781 6.5 -14 C 6.894531 -14.207031 7.3125 -14.363281 7.75 -14.46875 C 8.195312 -14.582031 8.675781 -14.640625 9.1875 -14.640625 C 9.976562 -14.640625 10.671875 -14.507812 11.265625 -14.25 C 11.867188 -13.988281 12.375 -13.617188 12.78125 -13.140625 C 13.1875 -12.660156 13.492188 -12.082031 13.703125 -11.40625 C 13.910156 -10.738281 14.015625 -9.992188 14.015625 -9.171875 L 14.015625 0 L 11.46875 0 L 11.46875 -9.171875 C 11.46875 -10.265625 11.21875 -11.113281 10.71875 -11.71875 C 10.21875 -12.320312 9.460938 -12.625 8.453125 -12.625 C 7.703125 -12.625 7 -12.441406 6.34375 -12.078125 C 5.695312 -11.710938 5.097656 -11.222656 4.546875 -10.609375 L 4.546875 0 L 2 0 L 2 -14.40625 L 3.53125 -14.40625 C 3.882812 -14.40625 4.109375 -14.234375 4.203125 -13.890625 Z M 4.390625 -12.3125 "/></g></g></g><g fill="#000000" fill-opacity="1"><g transform="translate(197.510168, 317.708142)"><g><path d="M 11.390625 -10.984375 C 10.921875 -11.617188 10.410156 -12.0625 9.859375 -12.3125 C 9.304688 -12.5625 8.691406 -12.6875 8.015625 -12.6875 C 6.671875 -12.6875 5.640625 -12.207031 4.921875 -11.25 C 4.203125 -10.289062 3.84375 -8.925781 3.84375 -7.15625 C 3.84375 -6.21875 3.921875 -5.410156 4.078125 -4.734375 C 4.242188 -4.066406 4.484375 -3.519531 4.796875 -3.09375 C 5.109375 -2.664062 5.488281 -2.347656 5.9375 -2.140625 C 6.394531 -1.941406 6.914062 -1.84375 7.5 -1.84375 C 8.332031 -1.84375 9.054688 -2.03125 9.671875 -2.40625 C 10.296875 -2.789062 10.867188 -3.332031 11.390625 -4.03125 Z M 13.921875 -20.953125 L 13.921875 0 L 12.421875 0 C 12.054688 0 11.828125 -0.175781 11.734375 -0.53125 L 11.515625 -2.28125 C 10.890625 -1.539062 10.179688 -0.941406 9.390625 -0.484375 C 8.609375 -0.0234375 7.703125 0.203125 6.671875 0.203125 C 5.847656 0.203125 5.097656 0.046875 4.421875 -0.265625 C 3.753906 -0.585938 3.179688 -1.054688 2.703125 -1.671875 C 2.222656 -2.296875 1.851562 -3.066406 1.59375 -3.984375 C 1.34375 -4.898438 1.21875 -5.957031 1.21875 -7.15625 C 1.21875 -8.21875 1.359375 -9.207031 1.640625 -10.125 C 1.929688 -11.039062 2.34375 -11.832031 2.875 -12.5 C 3.40625 -13.175781 4.054688 -13.707031 4.828125 -14.09375 C 5.597656 -14.476562 6.46875 -14.671875 7.4375 -14.671875 C 8.320312 -14.671875 9.078125 -14.519531 9.703125 -14.21875 C 10.335938 -13.914062 10.898438 -13.5 11.390625 -12.96875 L 11.390625 -20.953125 Z M 13.921875 -20.953125 "/></g></g></g><g fill="#000000" fill-opacity="1"><g transform="translate(214.008537, 317.708142)"><g><path d="M 23.8125 -20.390625 L 23.8125 0 L 21.390625 0 L 21.390625 -14.984375 C 21.390625 -15.179688 21.394531 -15.394531 21.40625 -15.625 C 21.425781 -15.851562 21.445312 -16.082031 21.46875 -16.3125 L 14.46875 -3.578125 C 14.25 -3.148438 13.914062 -2.9375 13.46875 -2.9375 L 13.078125 -2.9375 C 12.628906 -2.9375 12.296875 -3.148438 12.078125 -3.578125 L 4.9375 -16.375 C 4.988281 -15.875 5.015625 -15.410156 5.015625 -14.984375 L 5.015625 0 L 2.609375 0 L 2.609375 -20.390625 L 4.640625 -20.390625 C 4.878906 -20.390625 5.066406 -20.363281 5.203125 -20.3125 C 5.335938 -20.269531 5.46875 -20.140625 5.59375 -19.921875 L 12.640625 -7.375 C 12.742188 -7.144531 12.847656 -6.90625 12.953125 -6.65625 C 13.066406 -6.40625 13.175781 -6.15625 13.28125 -5.90625 C 13.375 -6.15625 13.472656 -6.40625 13.578125 -6.65625 C 13.679688 -6.914062 13.789062 -7.160156 13.90625 -7.390625 L 20.828125 -19.921875 C 20.941406 -20.140625 21.066406 -20.269531 21.203125 -20.3125 C 21.335938 -20.363281 21.53125 -20.390625 21.78125 -20.390625 Z M 23.8125 -20.390625 "/></g></g></g><g fill="#000000" fill-opacity="1"><g transform="translate(240.988984, 317.708142)"><g><path d="M 11.65625 -8.78125 C 11.65625 -9.363281 11.570312 -9.898438 11.40625 -10.390625 C 11.238281 -10.878906 10.992188 -11.300781 10.671875 -11.65625 C 10.359375 -12.007812 9.972656 -12.285156 9.515625 -12.484375 C 9.054688 -12.679688 8.539062 -12.78125 7.96875 -12.78125 C 6.75 -12.78125 5.785156 -12.425781 5.078125 -11.71875 C 4.378906 -11.007812 3.941406 -10.03125 3.765625 -8.78125 Z M 13.703125 -2.015625 C 13.390625 -1.640625 13.015625 -1.3125 12.578125 -1.03125 C 12.140625 -0.75 11.671875 -0.519531 11.171875 -0.34375 C 10.671875 -0.164062 10.15625 -0.03125 9.625 0.0625 C 9.09375 0.15625 8.566406 0.203125 8.046875 0.203125 C 7.054688 0.203125 6.140625 0.0351562 5.296875 -0.296875 C 4.460938 -0.640625 3.738281 -1.132812 3.125 -1.78125 C 2.507812 -2.4375 2.03125 -3.242188 1.6875 -4.203125 C 1.351562 -5.160156 1.1875 -6.257812 1.1875 -7.5 C 1.1875 -8.5 1.335938 -9.4375 1.640625 -10.3125 C 1.953125 -11.1875 2.394531 -11.941406 2.96875 -12.578125 C 3.550781 -13.222656 4.257812 -13.726562 5.09375 -14.09375 C 5.925781 -14.457031 6.863281 -14.640625 7.90625 -14.640625 C 8.769531 -14.640625 9.566406 -14.492188 10.296875 -14.203125 C 11.035156 -13.910156 11.671875 -13.492188 12.203125 -12.953125 C 12.742188 -12.410156 13.164062 -11.738281 13.46875 -10.9375 C 13.769531 -10.132812 13.921875 -9.21875 13.921875 -8.1875 C 13.921875 -7.789062 13.878906 -7.523438 13.796875 -7.390625 C 13.710938 -7.265625 13.550781 -7.203125 13.3125 -7.203125 L 3.6875 -7.203125 C 3.71875 -6.285156 3.84375 -5.488281 4.0625 -4.8125 C 4.28125 -4.144531 4.585938 -3.585938 4.984375 -3.140625 C 5.390625 -2.691406 5.863281 -2.351562 6.40625 -2.125 C 6.957031 -1.90625 7.578125 -1.796875 8.265625 -1.796875 C 8.898438 -1.796875 9.445312 -1.867188 9.90625 -2.015625 C 10.363281 -2.160156 10.757812 -2.316406 11.09375 -2.484375 C 11.425781 -2.660156 11.703125 -2.820312 11.921875 -2.96875 C 12.148438 -3.113281 12.34375 -3.1875 12.5 -3.1875 C 12.707031 -3.1875 12.867188 -3.101562 12.984375 -2.9375 Z M 13.703125 -2.015625 "/></g></g></g></svg>
